# xmcd
# Track frame offsets:
# 150
# 15193
# 31464
# 47401
# 60503
# 76357
# 77460
# 78706
# 79923
# 81139
# 82470
# 83695
# 84888
# 86055
# 87220
# 88468
# 90067
# 92714
# 98013
# 103315
# 108621
#
# Disc length: 1480 seconds
# Revision: 0
# Processed by: cddbd v1.4PL0 Copyright (c) Steve Scherf et al.
# Submitted via: VisiTrax 2.9.5.180 - For more info visit www.synapsa.com
#
DISCID=e705c615
DTITLE=Various Artist - CDX 229 December 1999
DYEAR=1999
DGENRE=
TTITLE0=Yankee Grey - Another nine minutes
TTITLE1=Wilkinsons - Jimmy's got a girlfriend
TTITLE2=Jerry Kilgore - The lock
TTITLE3=Beth Maguire - American boys
TTITLE4=Damon Gray - I'm looking for trouble
TTITLE5=Yankee Grey - Liner
TTITLE6=Yankee Grey - Liner
TTITLE7=Yankee Grey - Liner
TTITLE8=Yankee Grey - Liner
TTITLE9=Yankee Grey - Liner
TTITLE10=Yankee Grey - Liner
TTITLE11=Yankee Grey - Liner
TTITLE12=Yankee Grey - Liner
TTITLE13=Yankee Grey - Liner
TTITLE14=Yankee Grey - Liner
TTITLE15=Yankee Grey - Liner
TTITLE16=Yankee Grey - Liner
TTITLE17=Various Artist - PSA
TTITLE18=Various Artist - PSA
TTITLE19=Various Artist - PSA
TTITLE20=Various Artist - PSA
EXTD=
EXTT0=
EXTT1=
EXTT2=
EXTT3=
EXTT4=
EXTT5=
EXTT6=
EXTT7=
EXTT8=
EXTT9=
EXTT10=
EXTT11=
EXTT12=
EXTT13=
EXTT14=
EXTT15=
EXTT16=
EXTT17=
EXTT18=
EXTT19=
EXTT20=
PLAYORDER=
